<svg width="40" height="40" viewBox="0 0 40 40" fill="none" xmlns="http://www.w3.org/2000/svg">
<path d="M18.7812 10.5938V21.5312C18.7812 22.0312 18.25 22.5 17.9062 22.8438C17.1562 23.5625 16 23.5625 15.25 22.8438C14.9062 22.5 14.6875 22.0312 14.6875 21.5312V20.875H12.3125V21.5312C12.3125 22.6562 12.75 23.7188 13.5625 24.5C15.25 26.125 17.9062 26.125 19.5938 24.5C20.375 23.75 20.5312 22.6875 20.5312 21.5312V10.5938C19.9375 10.5 19.3438 10.5 18.7812 10.5938Z" fill="#2658CD"/>
<path d="M20.5312 1.96875V0.0625H18.7812V1.9375C12.0625 2.46875 6.40625 7.03125 6.03125 13.5C7.40625 11.3438 10.25 10.6875 12.4062 12.0625C13.125 12.5312 13.7188 13.1562 14.0938 13.9375C15.0312 12.0312 16.8125 10.8125 18.7812 10.5312H20.5312C21.125 10.625 21.75 10.8125 22.3125 11.0938C23.5312 11.6875 24.5312 12.6875 25.125 13.9062V13.9375C26.25 11.6562 29.0312 10.6875 31.3125 11.8125C32.0625 12.1875 32.7188 12.7812 33.1875 13.5C32.8438 7.09375 27.2188 2.53125 20.5312 1.96875Z" fill="#2658CD"/>
<path d="M11.0312 16.0312H28.4062C30.125 16.0312 31.5312 17.4375 31.5312 19.1562V36.6562C31.5312 38.375 30.125 39.7812 28.4062 39.7812H11.0312C9.3125 39.7812 7.90625 38.375 7.90625 36.6562V19.1562C7.90625 17.4375 9.3125 16.0312 11.0312 16.0312Z" fill="#2658CD"/>
<path d="M13.2812 18.5312H26.125C27.8438 18.5312 29.25 19.9375 29.25 21.6562V34.4062C29.25 36.125 27.8438 37.5312 26.125 37.5312H13.2812C11.5625 37.5312 10.1562 36.125 10.1562 34.4062V21.6562C10.1562 19.9375 11.5625 18.5312 13.2812 18.5312Z" fill="#2F7CF8"/>
<path fill-rule="evenodd" clip-rule="evenodd" d="M21.1875 27.5625C20.7813 27.3438 20.3438 27.1562 19.875 26.9688C19.625 26.875 19.375 26.75 19.1563 26.5625C18.875 26.375 18.8125 26 18.9688 25.7188C19.0313 25.5938 19.1563 25.5 19.2813 25.4688C19.4063 25.4062 19.5625 25.375 19.7188 25.375C20.2813 25.3438 20.8438 25.4375 21.3438 25.6875C21.5938 25.8125 21.6875 25.7812 21.7813 25.5C21.875 25.2188 21.9375 24.9375 22.0313 24.6562C22.0938 24.5 22.0313 24.3438 21.875 24.2812H21.8438C21.5 24.125 21.1563 24.0312 20.8125 23.9688C20.3438 23.9062 20.3438 23.9062 20.3438 23.4375C20.3438 22.7812 20.3438 22.7812 19.6875 22.7812C19.5938 22.7812 19.5 22.7812 19.4063 22.7812C19.0938 22.7812 19.0313 22.8438 19.0313 23.1562C19.0313 23.2812 19.0313 23.4375 19.0313 23.5625C19.0313 23.9688 19.0313 23.9688 18.625 24.125C17.6563 24.4688 17.0625 25.125 17 26.1562C16.9375 27.0625 17.4375 27.6875 18.1875 28.1562C18.6563 28.4062 19.1563 28.625 19.6875 28.8125C19.875 28.9062 20.0625 29 20.2188 29.125C20.5625 29.3438 20.625 29.8125 20.4063 30.1562C20.3125 30.2812 20.1875 30.375 20.0625 30.4375C19.75 30.5625 19.4375 30.5938 19.0938 30.5625C18.5938 30.5 18.0938 30.375 17.625 30.125C17.3438 30 17.2813 30.0312 17.1875 30.3125C17.0938 30.5625 17.0313 30.8125 16.9688 31.0625C16.875 31.4062 16.9063 31.4688 17.25 31.625C17.6563 31.8125 18.125 31.9375 18.5625 32C18.9063 32.0625 18.9375 32.0625 18.9375 32.4375C18.9375 32.5938 18.9375 32.7812 18.9375 32.9375C18.9063 33.0938 19.0313 33.25 19.1875 33.2812C19.2188 33.2812 19.2188 33.2812 19.25 33.2812C19.5 33.2812 19.75 33.2812 20 33.2812C20.1563 33.2812 20.2813 33.1875 20.3125 33.0312C20.3125 33 20.3125 33 20.3125 32.9688C20.3125 32.75 20.3125 32.5312 20.3125 32.2812C20.2813 32.0938 20.4375 31.9062 20.625 31.875C21.125 31.75 21.5938 31.4688 21.9063 31.0625C22.7188 30.0938 22.5625 28.6562 21.5938 27.8438C21.5 27.7188 21.3438 27.625 21.1875 27.5625Z" fill="#99D3CB"/>
<path d="M10.4062 30.5312C10.4375 30.5312 10.5 30.5312 10.5312 30.5312C11.1562 30.5312 11.6562 31.0312 11.6562 31.6562V34.1562C11.6562 34.7812 11.1562 35.2812 10.5312 35.2812C10.5 35.2812 10.4375 35.2812 10.4062 35.2812C10.1562 35.25 9.90625 35.125 9.75 34.9688" fill="#2658CD"/>
<path d="M10.4062 30.5312V35.25C10.1562 35.2188 9.90625 35.0938 9.75 34.9375C9.53125 34.7188 9.40625 34.4375 9.40625 34.1562V31.6562C9.40625 31.0938 9.84375 30.5938 10.4062 30.5312Z" fill="#2F7CF8"/>
<path d="M10.4062 20.7812C10.4375 20.7812 10.5 20.7812 10.5312 20.7812C11.1562 20.7812 11.6562 21.2812 11.6562 21.9062V24.4062C11.6562 25.0312 11.1562 25.5312 10.5312 25.5312C10.5 25.5312 10.4375 25.5312 10.4062 25.5312" fill="#2658CD"/>
<path d="M10.4062 20.7812V25.5312C10.1562 25.5 9.90625 25.375 9.75 25.2188C9.53125 25 9.40625 24.75 9.40625 24.4375V21.9375C9.40625 21.3125 9.84375 20.8438 10.4062 20.7812Z" fill="#2F7CF8"/>
<path d="M30 28.0312C30 28.0625 30 28.125 30 28.1562C30 28.4688 29.875 28.75 29.6562 28.9375C29.4688 29.125 29.1875 29.25 28.875 29.25H26.3438C25.7188 29.25 25.2188 28.75 25.2188 28.125C25.2188 28.0938 25.2188 28.0312 25.2188 28" fill="#2658CD"/>
<path d="M30 28.0312H25.25C25.2812 27.7812 25.4062 27.5312 25.5625 27.375C25.7812 27.1875 26.0312 27.0625 26.3438 27.0625H28.875C29.4688 27.0312 29.9375 27.4687 30 28.0312Z" fill="#2F7CF8"/>
</svg>
