<svg width="40" height="40" viewBox="0 0 40 40" fill="none" xmlns="http://www.w3.org/2000/svg">
<g clip-path="url(#clip0)">
<path d="M19.215 0.297974V36.711" stroke="#2F7CF8" stroke-width="1.983" stroke-linecap="square"/>
<path d="M30.124 33.636H9.06604" stroke="#2658CD" stroke-width="1.653"/>
<path d="M35.347 22.165H26.124L23.116 27.421" stroke="#2F7CF8" stroke-width="1.983" stroke-linejoin="round"/>
<path d="M34.322 37.702L31.05 37.603L25.496 28.182L27.182 27.19L32.207 35.653L34.388 35.719L34.322 37.702Z" fill="#2F7CF8"/>
<path d="M5.231 37.702L5.099 35.719L5.959 35.653L10.983 27.19L12.702 28.182L7.149 37.57L5.231 37.702Z" fill="#2F7CF8"/>
<path fill-rule="evenodd" clip-rule="evenodd" d="M32.2067 10.9752C32.3059 11.4711 29.8926 11.8017 26.8183 12C24.5042 12.1322 21.8265 12.2314 19.4794 12.2314C14.7852 12.2314 7.87612 12.3306 6.15711 11.8347C5.89265 11.7686 5.72736 11.6694 5.76042 11.5372C6.75215 6.04959 11.248 1.2562 16.7356 0.264461C17.3307 0.165288 17.9257 0.099172 18.5207 0.0661142C18.9505 0.0330563 19.4133 0.0330563 19.8431 0.0661142C25.8265 0.363635 31.0827 4.76033 32.2067 10.9752Z" fill="#2F7CF8"/>
<path fill-rule="evenodd" clip-rule="evenodd" d="M32.2066 10.9752C32.3058 11.4711 29.8926 11.8016 26.8182 12C26.4215 12 26.0248 12 25.6281 12C20.1736 12 12.3389 12.2975 12.5042 11.3058C13.2314 6.74378 15.3802 2.57849 18.4876 0.0660953C25.0661 -0.297541 30.9835 4.33056 32.2066 10.9752Z" fill="#2658CD"/>
<path opacity="0.6" fill-rule="evenodd" clip-rule="evenodd" d="M25.6943 10.6446C25.529 11.0413 24.2398 11.3058 22.4216 11.5372C19.81 11.8347 16.0745 12 13.0001 12C10.9174 12 8.4381 11.9339 6.15711 11.8017C5.89265 11.7355 5.72736 11.6364 5.76042 11.5041C6.75215 6.01653 11.248 1.22315 16.7356 0.231411C17.3307 0.132238 17.9257 0.0661218 18.5207 0.033064C18.7522 0.033064 19.0166 6.10389e-06 19.248 0.033064C19.4464 0.033064 19.6447 0.0330638 19.8431 0.0661217C22.7191 2.281 24.8017 5.75207 25.6282 9.8843V9.91736" fill="#2F7CF8"/>
<path d="M9.06605 15.2071C10.9101 15.2071 12.4051 13.7122 12.4051 11.8681C12.4051 10.024 10.9101 8.52911 9.06605 8.52911C7.22197 8.52911 5.72705 10.024 5.72705 11.8681C5.72705 13.7122 7.22197 15.2071 9.06605 15.2071Z" fill="#2F7CF8"/>
<path d="M15.744 15.2071C17.5881 15.2071 19.083 13.7122 19.083 11.8681C19.083 10.024 17.5881 8.52911 15.744 8.52911C13.9 8.52911 12.405 10.024 12.405 11.8681C12.405 13.7122 13.9 15.2071 15.744 15.2071Z" fill="#2B6EE7"/>
<path fill-rule="evenodd" clip-rule="evenodd" d="M25.7603 11.5372H19.0826L19.2149 0C19.4132 0 19.6116 6.70552e-08 19.8099 0.0330579C22.6859 2.24793 24.7686 5.71901 25.595 9.85124V9.8843C25.6281 10.1818 25.6612 10.4132 25.6942 10.6446C25.7603 11.2066 25.7603 11.5372 25.7603 11.5372Z" fill="#2963D3"/>
<path d="M22.421 15.2071C24.2651 15.2071 25.76 13.7122 25.76 11.8681C25.76 10.024 24.2651 8.52911 22.421 8.52911C20.577 8.52911 19.082 10.024 19.082 11.8681C19.082 13.7122 20.577 15.2071 22.421 15.2071Z" fill="#2963D3"/>
<path d="M29.099 15.2401C30.9431 15.2401 32.438 13.7304 32.438 11.8681C32.438 10.0058 30.9431 8.49609 29.099 8.49609C27.2549 8.49609 25.76 10.0058 25.76 11.8681C25.76 13.7304 27.2549 15.2401 29.099 15.2401Z" fill="#2658CD"/>
<path d="M6.9173 25.7355H31.5123C32.438 25.7355 33.1652 26.4628 33.1652 27.3884V29.7355H5.2644V27.3884C5.2644 26.4628 5.99168 25.7355 6.9173 25.7355Z" fill="#99D3CB"/>
<path fill-rule="evenodd" clip-rule="evenodd" d="M30.0909 27.0578L36.471 15.6529C36.7024 15.2892 37.3305 15.2562 37.9586 15.5867L40.3388 16.9752L33.1652 29.7355L30.7851 28.3471C30.19 28.0165 29.8925 27.4215 30.0909 27.0578Z" fill="#99D3CB"/>
</g>
<defs>
<clipPath id="clip0">
<rect width="40" height="40" fill="white"/>
</clipPath>
</defs>
</svg>
